<svg width="152" height="43" viewBox="0 0 152 43" fill="none" xmlns="http://www.w3.org/2000/svg">
<path d="M51.505 9.95943C51.505 10.9108 51.2133 11.6728 50.6386 12.241C49.9777 12.9147 49.1171 13.2537 48.0624 13.2537C47.0544 13.2537 46.1938 12.909 45.4877 12.2296C44.7803 11.5403 44.4272 10.6943 44.4272 9.6817C44.4272 8.66908 44.7803 7.82309 45.4877 7.13946C46.1938 6.4544 47.0544 6.10974 48.0624 6.10974C48.5642 6.10974 49.0427 6.21086 49.4993 6.39886C49.9544 6.58828 50.3249 6.84464 50.5933 7.16082L49.9836 7.76185C49.5153 7.22206 48.8779 6.95573 48.0624 6.95573C47.3272 6.95573 46.6898 7.2064 46.1486 7.712C45.6132 8.21902 45.3448 8.87559 45.3448 9.6817C45.3448 10.4878 45.6132 11.1501 46.1486 11.6571C46.6898 12.157 47.3272 12.4134 48.0624 12.4134C48.8428 12.4134 49.4993 12.157 50.0171 11.6514C50.3585 11.3167 50.5525 10.8553 50.6035 10.2656H48.0624V9.44243H51.4525C51.4934 9.62046 51.505 9.79279 51.505 9.95943Z" fill="white"/>
<path d="M56.8834 7.10527H53.699V9.27009H56.5698V10.0933H53.699V12.2581H56.8834V13.097H52.7975V6.2664H56.8834V7.10527Z" fill="white"/>
<path d="M60.679 13.097H59.7775V7.10527H57.8243V6.2664H62.6337V7.10527H60.679V13.097Z" fill="white"/>
<path d="M66.1143 13.097V6.2664H67.0143V13.097H66.1143Z" fill="white"/>
<path d="M71.004 13.097H70.1098V7.10527H68.1492V6.2664H72.9645V7.10527H71.004V13.097Z" fill="white"/>
<path d="M82.07 12.2183C81.38 12.909 80.5252 13.2537 79.5055 13.2537C78.48 13.2537 77.6252 12.909 76.9352 12.2183C76.2467 11.5289 75.9039 10.6829 75.9039 9.6817C75.9039 8.68047 76.2467 7.83448 76.9352 7.14515C77.6252 6.4544 78.48 6.10974 79.5055 6.10974C80.5193 6.10974 81.3742 6.4544 82.0642 7.15085C82.7585 7.84587 83.1013 8.68617 83.1013 9.6817C83.1013 10.6829 82.7585 11.5289 82.07 12.2183ZM77.6019 11.6457C78.1212 12.157 78.7528 12.4134 79.5055 12.4134C80.2524 12.4134 80.8899 12.157 81.4033 11.6457C81.9212 11.1344 82.1838 10.4778 82.1838 9.6817C82.1838 8.88556 81.9212 8.22899 81.4033 7.71769C80.8899 7.2064 80.2524 6.95004 79.5055 6.95004C78.7528 6.95004 78.1212 7.2064 77.6019 7.71769C77.084 8.22899 76.8214 8.88556 76.8214 9.6817C76.8214 10.4778 77.084 11.1344 77.6019 11.6457Z" fill="white"/>
<path d="M84.366 13.097V6.2664H85.4601L88.8619 11.5788H88.9012L88.8619 10.2656V6.2664H89.7619V13.097H88.8225L85.2602 7.52257H85.2208L85.2602 8.8414V13.097H84.366Z" fill="white"/>
<path d="M75.6821 23.0743C72.9411 23.0743 70.702 25.111 70.702 27.921C70.702 30.7082 72.9411 32.7662 75.6821 32.7662C78.4289 32.7662 80.6681 30.7082 80.6681 27.921C80.6681 25.111 78.4289 23.0743 75.6821 23.0743ZM75.6821 30.8577C74.1781 30.8577 72.8842 29.6457 72.8842 27.921C72.8842 26.1734 74.1781 24.9828 75.6821 24.9828C77.1861 24.9828 78.4858 26.1734 78.4858 27.921C78.4858 29.6457 77.1861 30.8577 75.6821 30.8577V30.8577ZM64.816 23.0743C62.0692 23.0743 59.8358 25.111 59.8358 27.921C59.8358 30.7082 62.0692 32.7662 64.816 32.7662C67.5613 32.7662 69.7961 30.7082 69.7961 27.921C69.7961 25.111 67.5613 23.0743 64.816 23.0743ZM64.816 30.8577C63.3105 30.8577 62.0123 29.6457 62.0123 27.921C62.0123 26.1734 63.3105 24.9828 64.816 24.9828C66.3199 24.9828 67.6138 26.1734 67.6138 27.921C67.6138 29.6457 66.3199 30.8577 64.816 30.8577ZM51.8857 24.5598V26.6192H56.9227C56.7754 27.77 56.3815 28.616 55.7776 29.2056C55.0424 29.9177 53.8973 30.7082 51.8857 30.7082C48.7859 30.7082 46.3585 28.2656 46.3585 25.2391C46.3585 22.2127 48.7859 19.7701 51.8857 19.7701C53.5618 19.7701 54.7813 20.4096 55.6813 21.2385L57.1678 19.7872C55.9089 18.6136 54.2343 17.7121 51.8857 17.7121C47.6349 17.7121 44.0625 21.0889 44.0625 25.2391C44.0625 29.3893 47.6349 32.7662 51.8857 32.7662C54.1832 32.7662 55.9089 32.0313 57.2655 30.6526C58.6557 29.2953 59.089 27.3869 59.089 25.8459C59.089 25.3673 59.0481 24.9272 58.9752 24.5598H51.8857ZM104.759 26.1563C104.349 25.0725 103.084 23.0743 100.508 23.0743C97.9556 23.0743 95.8302 25.0383 95.8302 27.921C95.8302 30.6355 97.9337 32.7662 100.753 32.7662C103.033 32.7662 104.349 31.4089 104.89 30.6184L103.198 29.5175C102.634 30.3236 101.865 30.8577 100.753 30.8577C99.6492 30.8577 98.8571 30.3635 98.3494 29.3893L104.988 26.7075L104.759 26.1563V26.1563ZM97.9906 27.77C97.9337 25.9014 99.477 24.9443 100.583 24.9443C101.449 24.9443 102.184 25.3673 102.43 25.9726L97.9906 27.77V27.77ZM92.5947 32.4714H94.777V18.2291H92.5947V32.4714ZM89.0208 24.1539H88.9479C88.4577 23.587 87.5227 23.0743 86.3382 23.0743C83.8525 23.0743 81.5798 25.205 81.5798 27.9366C81.5798 30.6526 83.8525 32.7662 86.3382 32.7662C87.5227 32.7662 88.4577 32.2492 88.9479 31.6652H89.0208V32.3603C89.0208 34.2132 88.007 35.2087 86.3717 35.2087C85.0384 35.2087 84.2113 34.2687 83.87 33.4783L81.9722 34.2516C82.5192 35.5363 83.9677 37.1172 86.3717 37.1172C88.9304 37.1172 91.0893 35.6474 91.0893 32.0712V23.3691H89.0208V24.1539V24.1539ZM86.5249 30.8577C85.0209 30.8577 83.762 29.6286 83.762 27.9366C83.762 26.229 85.0209 24.9828 86.5249 24.9828C88.007 24.9828 89.1754 26.229 89.1754 27.9366C89.1754 29.6286 88.007 30.8577 86.5249 30.8577V30.8577ZM114.976 18.2291H109.757V32.4714H111.933V27.075H114.976C117.393 27.075 119.764 25.3673 119.764 22.6513C119.764 19.9367 117.387 18.2291 114.976 18.2291V18.2291ZM115.033 25.0939H111.933V20.2102H115.033C116.658 20.2102 117.586 21.5276 117.586 22.6513C117.586 23.7537 116.658 25.0939 115.033 25.0939ZM128.487 23.0472C126.914 23.0472 125.279 23.7252 124.607 25.2277L126.538 26.0182C126.954 25.2277 127.718 24.9714 128.526 24.9714C129.655 24.9714 130.801 25.6336 130.818 26.8029V26.9525C130.424 26.7303 129.581 26.4013 128.544 26.4013C126.464 26.4013 124.344 27.5193 124.344 29.6058C124.344 31.5143 126.048 32.7434 127.963 32.7434C129.428 32.7434 130.236 32.0982 130.744 31.3476H130.818V32.4486H132.92V26.9852C132.92 24.4601 130.989 23.0472 128.487 23.0472ZM128.224 30.852C127.513 30.852 126.521 30.5073 126.521 29.6457C126.521 28.5433 127.758 28.1203 128.828 28.1203C129.787 28.1203 130.236 28.3269 130.818 28.5989C130.647 29.9177 129.485 30.852 128.224 30.852V30.852ZM140.578 23.3592L138.077 29.5332H138.002L135.416 23.3592H133.069L136.955 31.9871L134.738 36.7882H137.012L143 23.3592H140.578V23.3592ZM120.96 32.4714H123.142V18.2291H120.96V32.4714Z" fill="white"/>
<path d="M7.54119 6.87759C7.19839 7.22795 7 7.77343 7 8.47984V33.6773C7 34.3837 7.19839 34.9292 7.54119 35.2795L7.6258 35.3564L22.0877 21.2424V20.9091L7.6258 6.79499L7.54119 6.87759Z" fill="url(#paint0_linear_73_829)"/>
<path d="M26.9027 25.9492L22.0874 21.2421V20.9089L26.9085 16.2018L27.0165 16.263L32.726 19.4348C34.3554 20.3349 34.3554 21.8161 32.726 22.7219L27.0165 25.888L26.9027 25.9492V25.9492Z" fill="url(#paint1_linear_73_829)"/>
<path d="M27.0161 25.888L22.0871 21.0756L7.54053 35.2794C8.08172 35.8348 8.96426 35.9018 9.96787 35.3463L27.0161 25.888" fill="url(#paint2_linear_73_829)"/>
<path d="M27.0161 16.2632L9.96787 6.80493C8.96426 6.25517 8.08172 6.32211 7.54053 6.87756L22.0871 21.0757L27.0161 16.2632Z" fill="url(#paint3_linear_73_829)"/>
<defs>
<linearGradient id="paint0_linear_73_829" x1="20.8037" y1="33.9397" x2="1.6876" y2="14.3604" gradientUnits="userSpaceOnUse">
<stop stop-color="#00A0FF"/>
<stop offset="0.0066" stop-color="#00A1FF"/>
<stop offset="0.2601" stop-color="#00BEFF"/>
<stop offset="0.5122" stop-color="#00D2FF"/>
<stop offset="0.7604" stop-color="#00DFFF"/>
<stop offset="1" stop-color="#00E3FF"/>
</linearGradient>
<linearGradient id="paint1_linear_73_829" x1="34.8477" y1="21.0739" x2="6.61019" y2="21.0739" gradientUnits="userSpaceOnUse">
<stop stop-color="#FFE000"/>
<stop offset="0.4087" stop-color="#FFBD00"/>
<stop offset="0.7754" stop-color="#FFA500"/>
<stop offset="1" stop-color="#FF9C00"/>
</linearGradient>
<linearGradient id="paint2_linear_73_829" x1="24.3359" y1="18.4594" x2="-1.58711" y2="-8.09167" gradientUnits="userSpaceOnUse">
<stop stop-color="#FF3A44"/>
<stop offset="1" stop-color="#C31162"/>
</linearGradient>
<linearGradient id="paint3_linear_73_829" x1="3.87886" y1="43.6626" x2="15.4546" y2="31.8064" gradientUnits="userSpaceOnUse">
<stop stop-color="#32A071"/>
<stop offset="0.0685" stop-color="#2DA771"/>
<stop offset="0.4762" stop-color="#15CF74"/>
<stop offset="0.8009" stop-color="#06E775"/>
<stop offset="1" stop-color="#00F076"/>
</linearGradient>
</defs>
</svg>
