<svg width="136" height="36" viewBox="0 0 136 36" fill="none" xmlns="http://www.w3.org/2000/svg">
<path d="M21.5694 16.8087C21.5333 12.899 24.8528 10.9968 25.0046 10.9083C23.1246 8.23587 20.2107 7.87073 19.1867 7.84162C16.7394 7.59051 14.3655 9.26942 13.1188 9.26942C11.8473 9.26942 9.9275 7.86588 7.85841 7.90713C5.19585 7.94716 2.70498 9.45017 1.33887 11.7841C-1.48046 16.5431 0.622213 23.5365 3.32335 27.3832C4.67453 29.2671 6.25341 31.3706 8.32 31.2966C10.3418 31.2153 11.097 30.0398 13.5369 30.0398C15.9543 30.0398 16.6635 31.2966 18.7712 31.2493C20.941 31.2153 22.3072 29.3569 23.6111 27.456C25.1725 25.2967 25.7996 23.1701 25.8245 23.061C25.7735 23.044 21.6104 21.4949 21.5694 16.8087Z" fill="white"/>
<path d="M17.588 5.31113C18.6754 3.98523 19.4194 2.18137 19.2129 0.35083C17.639 0.418763 15.6707 1.41228 14.5372 2.70906C13.5344 3.85179 12.6386 5.72479 12.87 7.48619C14.638 7.61477 16.4533 6.61641 17.588 5.31113Z" fill="white"/>
<path d="M50.7597 31.0279H47.9341L46.3864 26.286H41.0065L39.5321 31.0279H36.7812L42.1114 14.8842H45.4035L50.7597 31.0279ZM45.9198 24.2965L44.5201 20.0811C44.372 19.6504 44.0946 18.6363 43.6852 17.0399H43.6355C43.4725 17.7265 43.21 18.7406 42.8492 20.0811L41.4743 24.2965H45.9198Z" fill="white"/>
<path d="M64.4669 25.0645C64.4669 27.0442 63.9182 28.6091 62.8209 29.7579C61.8379 30.7805 60.6174 31.2912 59.1605 31.2912C57.5878 31.2912 56.4581 30.7405 55.77 29.639H55.7203V35.7711H53.0677V23.2194C53.0677 21.9747 53.0341 20.6974 52.9694 19.3872H55.3022L55.4503 21.2323H55.5001C56.3847 19.8421 57.7271 19.1483 59.5287 19.1483C60.9372 19.1483 62.1129 19.6905 63.0535 20.7762C63.9966 21.8631 64.4669 23.2921 64.4669 25.0645ZM61.7645 25.1591C61.7645 24.0261 61.5033 23.092 60.9782 22.3569C60.4046 21.5902 59.6345 21.2069 58.669 21.2069C58.0146 21.2069 57.4198 21.4204 56.8886 21.8413C56.3561 22.2659 56.0077 22.8203 55.8447 23.5069C55.7626 23.8271 55.7215 24.0891 55.7215 24.2954V26.2363C55.7215 27.083 55.9878 27.7975 56.5203 28.381C57.0528 28.9645 57.7446 29.2557 58.5956 29.2557C59.5947 29.2557 60.3723 28.8796 60.9284 28.1299C61.4858 27.379 61.7645 26.3891 61.7645 25.1591Z" fill="white"/>
<path d="M78.199 25.0645C78.199 27.0442 77.6503 28.6091 76.5517 29.7579C75.5701 30.7805 74.3495 31.2912 72.8926 31.2912C71.3199 31.2912 70.1902 30.7405 69.5034 29.639H69.4536V35.7711H66.801V23.2194C66.801 21.9747 66.7674 20.6974 66.7027 19.3872H69.0356L69.1837 21.2323H69.2334C70.1168 19.8421 71.4593 19.1483 73.2621 19.1483C74.6693 19.1483 75.845 19.6905 76.7881 20.7762C77.7275 21.8631 78.199 23.2921 78.199 25.0645ZM75.4967 25.1591C75.4967 24.0261 75.2341 23.092 74.7091 22.3569C74.1355 21.5902 73.3679 21.2069 72.4011 21.2069C71.7454 21.2069 71.152 21.4204 70.6194 21.8413C70.0869 22.2659 69.7398 22.8203 69.5768 23.5069C69.4959 23.8271 69.4536 24.0891 69.4536 24.2954V26.2363C69.4536 27.083 69.7199 27.7975 70.2499 28.381C70.7824 28.9633 71.4742 29.2557 72.3277 29.2557C73.3268 29.2557 74.1044 28.8796 74.6606 28.1299C75.218 27.379 75.4967 26.3891 75.4967 25.1591Z" fill="white"/>
<path d="M93.5523 26.5007C93.5523 27.874 93.0634 28.9912 92.0817 29.8537C91.003 30.7963 89.5012 31.267 87.5715 31.267C85.7898 31.267 84.3615 30.9321 83.2803 30.2613L83.8949 28.1057C85.0595 28.7923 86.3373 29.1368 87.7295 29.1368C88.7286 29.1368 89.5062 28.916 90.0649 28.4769C90.621 28.0377 90.8985 27.4482 90.8985 26.713C90.8985 26.058 90.6695 25.506 90.2104 25.0584C89.7538 24.6108 88.9911 24.1947 87.9261 23.8101C85.0271 22.756 83.5789 21.2117 83.5789 19.181C83.5789 17.8539 84.0865 16.7657 85.103 15.919C86.1158 15.0711 87.467 14.6477 89.1566 14.6477C90.6633 14.6477 91.915 14.9037 92.914 15.4144L92.2509 17.5227C91.3177 17.0278 90.2627 16.7803 89.0819 16.7803C88.1488 16.7803 87.4197 17.0047 86.8972 17.4511C86.4555 17.8502 86.234 18.3367 86.234 18.9129C86.234 19.551 86.4866 20.0787 86.9942 20.4936C87.4359 20.8769 88.2384 21.2918 89.403 21.7394C90.8275 22.2986 91.8739 22.9525 92.547 23.7022C93.2176 24.4494 93.5523 25.3847 93.5523 26.5007Z" fill="white"/>
<path d="M102.323 21.3281H99.3988V26.9799C99.3988 28.4174 99.9138 29.1355 100.947 29.1355C101.421 29.1355 101.814 29.0955 102.125 29.0155L102.198 30.9794C101.676 31.1699 100.988 31.2657 100.135 31.2657C99.0877 31.2657 98.269 30.954 97.678 30.3316C97.0895 29.7081 96.7934 28.6624 96.7934 27.1934V21.3257H95.0516V19.3848H96.7934V17.2534L99.3988 16.4867V19.3848H102.323V21.3281Z" fill="white"/>
<path d="M115.515 25.1118C115.515 26.9011 114.99 28.3701 113.942 29.5189C112.843 30.7016 111.385 31.2912 109.567 31.2912C107.816 31.2912 106.421 30.7247 105.381 29.5917C104.341 28.4587 103.821 27.0284 103.821 25.3046C103.821 23.5008 104.356 22.0232 105.429 20.8745C106.501 19.7245 107.946 19.1495 109.764 19.1495C111.516 19.1495 112.926 19.716 113.989 20.8502C115.007 21.9505 115.515 23.371 115.515 25.1118ZM112.763 25.1955C112.763 24.1219 112.527 23.2012 112.051 22.4333C111.495 21.504 110.7 21.0407 109.67 21.0407C108.603 21.0407 107.793 21.5053 107.237 22.4333C106.761 23.2024 106.525 24.1377 106.525 25.244C106.525 26.3176 106.761 27.2383 107.237 28.005C107.811 28.9342 108.612 29.3976 109.646 29.3976C110.659 29.3976 111.454 28.9245 112.027 27.9807C112.516 27.1983 112.763 26.2678 112.763 25.1955Z" fill="white"/>
<path d="M124.137 21.6618C123.874 21.6145 123.594 21.5902 123.301 21.5902C122.368 21.5902 121.646 21.9335 121.138 22.6213C120.697 23.2279 120.475 23.9945 120.475 24.9201V31.028H117.824L117.849 23.0532C117.849 21.7115 117.815 20.4899 117.749 19.3884H120.06L120.157 21.6157H120.23C120.51 20.8502 120.952 20.234 121.556 19.7718C122.147 19.3557 122.786 19.1483 123.474 19.1483C123.719 19.1483 123.94 19.1652 124.137 19.1956V21.6618Z" fill="white"/>
<path d="M136 24.6569C136 25.1202 135.969 25.5109 135.903 25.8299H127.945C127.977 26.9799 128.361 27.8594 129.1 28.4659C129.771 29.0082 130.638 29.2799 131.703 29.2799C132.881 29.2799 133.956 29.0967 134.923 28.7292L135.338 30.5245C134.209 31.0049 132.875 31.2439 131.336 31.2439C129.484 31.2439 128.031 30.7126 126.974 29.6511C125.919 28.5897 125.39 27.1643 125.39 25.3762C125.39 23.6209 125.881 22.1591 126.865 20.9933C127.896 19.7487 129.288 19.1264 131.04 19.1264C132.76 19.1264 134.063 19.7487 134.948 20.9933C135.648 21.982 136 23.2048 136 24.6569ZM133.471 23.986C133.488 23.2193 133.315 22.557 132.956 21.9978C132.497 21.2784 131.791 20.9193 130.842 20.9193C129.975 20.9193 129.269 21.2699 128.73 21.9735C128.289 22.5327 128.026 23.2036 127.945 23.9848H133.471V23.986Z" fill="white"/>
<path d="M45.0417 4.94977C45.0417 6.37757 44.6025 7.45236 43.7254 8.17415C42.9129 8.84013 41.7583 9.17373 40.2628 9.17373C39.5213 9.17373 38.8867 9.14219 38.3555 9.07911V1.27777C39.0485 1.16859 39.795 1.11279 40.6012 1.11279C42.0258 1.11279 43.0996 1.41484 43.8237 2.01896C44.6349 2.70193 45.0417 3.67846 45.0417 4.94977ZM43.6669 4.98495C43.6669 4.05937 43.4156 3.34971 42.9129 2.85477C42.4103 2.36105 41.6762 2.11358 40.7095 2.11358C40.2989 2.11358 39.9493 2.14027 39.6594 2.19607V8.12684C39.8199 8.1511 40.1135 8.16201 40.5403 8.16201C41.5381 8.16201 42.3083 7.8915 42.8507 7.35046C43.3932 6.80943 43.6669 6.02092 43.6669 4.98495Z" fill="white"/>
<path d="M52.3314 6.19682C52.3314 7.0763 52.0739 7.79687 51.5588 8.36217C51.0188 8.94324 50.3034 9.23316 49.4101 9.23316C48.5491 9.23316 47.8636 8.95537 47.3522 8.39735C46.8421 7.84054 46.587 7.13817 46.587 6.29144C46.587 5.40589 46.8495 4.67925 47.3771 4.11517C47.9046 3.55108 48.6138 3.26843 49.5071 3.26843C50.3681 3.26843 51.0599 3.54623 51.5837 4.10303C52.0814 4.64407 52.3314 5.34281 52.3314 6.19682ZM50.979 6.23806C50.979 5.71037 50.8621 5.25789 50.6294 4.88062C50.3557 4.4245 49.9662 4.19644 49.4599 4.19644C48.9361 4.19644 48.5379 4.4245 48.2642 4.88062C48.0303 5.25789 47.9146 5.71765 47.9146 6.26111C47.9146 6.7888 48.0315 7.24128 48.2642 7.61855C48.5466 8.07467 48.9398 8.30273 49.4474 8.30273C49.9451 8.30273 50.3358 8.07103 50.6169 7.60642C50.8583 7.22187 50.979 6.76575 50.979 6.23806Z" fill="white"/>
<path d="M62.1058 3.38489L60.2706 9.10336H59.0762L58.316 6.62018C58.1231 6.0003 57.9664 5.38405 57.8444 4.77266H57.8208C57.7076 5.40103 57.5508 6.01607 57.3492 6.62018L56.5418 9.10336H55.3337L53.608 3.38489H54.948L55.6111 6.10341C55.7716 6.74634 55.9035 7.35895 56.0093 7.9388H56.0329C56.1299 7.46085 56.2904 6.85188 56.5169 6.11554L57.3492 3.3861H58.4118L59.2093 6.05731C59.4022 6.70874 59.5589 7.3359 59.6796 7.94002H59.7157C59.804 7.35167 59.9372 6.72451 60.1138 6.05731L60.8255 3.3861H62.1058V3.38489Z" fill="white"/>
<path d="M68.8654 9.10337H67.5615V5.82805C67.5615 4.81876 67.1684 4.31412 66.3796 4.31412C65.9926 4.31412 65.6803 4.45241 65.4377 4.73021C65.1976 5.008 65.0757 5.33554 65.0757 5.71038V9.10216H63.7717V5.01892C63.7717 4.5167 63.7556 3.97203 63.7245 3.38247H64.8704L64.9313 4.27651H64.9674C65.1192 3.99872 65.3456 3.76945 65.643 3.58627C65.9964 3.37277 66.392 3.2648 66.825 3.2648C67.3724 3.2648 67.8278 3.43706 68.1899 3.78279C68.6402 4.20615 68.8654 4.83817 68.8654 5.67763V9.10337Z" fill="white"/>
<path d="M72.4612 9.10336H71.1585V0.760986H72.4612V9.10336Z" fill="white"/>
<path d="M80.1378 6.19682C80.1378 7.0763 79.8803 7.79687 79.3652 8.36217C78.8252 8.94324 78.1085 9.23316 77.2165 9.23316C76.3542 9.23316 75.6687 8.95537 75.1586 8.39735C74.6484 7.84054 74.3934 7.13817 74.3934 6.29144C74.3934 5.40589 74.6559 4.67925 75.1834 4.11517C75.711 3.55108 76.4202 3.26843 77.3123 3.26843C78.1745 3.26843 78.865 3.54623 79.39 4.10303C79.8877 4.64407 80.1378 5.34281 80.1378 6.19682ZM78.7841 6.23806C78.7841 5.71037 78.6672 5.25789 78.4345 4.88062C78.162 4.4245 77.7714 4.19644 77.2662 4.19644C76.7412 4.19644 76.343 4.4245 76.0706 4.88062C75.8366 5.25789 75.7209 5.71765 75.7209 6.26111C75.7209 6.7888 75.8379 7.24128 76.0706 7.61855C76.353 8.07467 76.7462 8.30273 77.2538 8.30273C77.7515 8.30273 78.1409 8.07103 78.4221 7.60642C78.6647 7.22187 78.7841 6.76575 78.7841 6.23806Z" fill="white"/>
<path d="M86.4483 9.10336H85.2775L85.1805 8.44466H85.1444C84.7438 8.96992 84.1727 9.23316 83.4312 9.23316C82.8775 9.23316 82.4296 9.05969 82.0924 8.71518C81.7864 8.4022 81.6333 8.0128 81.6333 7.55062C81.6333 6.85188 81.9319 6.31934 82.5329 5.95056C83.1326 5.58178 83.9761 5.40103 85.0623 5.40952V5.30277C85.0623 4.54945 84.6567 4.17339 83.8442 4.17339C83.2657 4.17339 82.7556 4.31532 82.3151 4.59676L82.0501 3.76216C82.5951 3.43341 83.2682 3.26843 84.062 3.26843C85.5948 3.26843 86.3637 4.05694 86.3637 5.63395V7.73986C86.3637 8.31122 86.3923 8.76613 86.4483 9.10336ZM85.0946 7.13817V6.25626C83.6564 6.232 82.9372 6.61654 82.9372 7.40869C82.9372 7.70711 83.0193 7.93031 83.1873 8.07952C83.3553 8.22873 83.5693 8.30273 83.8243 8.30273C84.1105 8.30273 84.378 8.21417 84.6219 8.03828C84.867 7.86117 85.0175 7.63675 85.0735 7.36138C85.0872 7.29951 85.0946 7.2243 85.0946 7.13817Z" fill="white"/>
<path d="M93.8575 9.10336H92.7004L92.6394 8.18506H92.6033C92.2338 8.88379 91.6042 9.23316 90.7196 9.23316C90.0129 9.23316 89.4244 8.96264 88.9579 8.42161C88.4913 7.88057 88.2586 7.1782 88.2586 6.3157C88.2586 5.39011 88.5112 4.64043 89.0188 4.06785C89.5103 3.53409 90.1125 3.26722 90.8291 3.26722C91.6167 3.26722 92.1679 3.5256 92.4814 4.04359H92.5063V0.760986H93.8114V7.56275C93.8114 8.11955 93.8264 8.63268 93.8575 9.10336ZM92.5063 6.69175V5.73827C92.5063 5.57329 92.4938 5.43985 92.4702 5.33795C92.3968 5.03225 92.2388 4.77508 91.9986 4.56764C91.756 4.36021 91.4636 4.25588 91.1265 4.25588C90.64 4.25588 90.2593 4.44391 89.9793 4.82118C89.7019 5.19845 89.5613 5.68004 89.5613 6.26838C89.5613 6.83368 89.6944 7.29223 89.9619 7.64524C90.2443 8.02129 90.6251 8.20932 91.1016 8.20932C91.5296 8.20932 91.8717 8.05283 92.1318 7.73864C92.3831 7.44872 92.5063 7.09935 92.5063 6.69175Z" fill="white"/>
<path d="M105.009 6.19682C105.009 7.0763 104.752 7.79687 104.236 8.36217C103.697 8.94324 102.982 9.23316 102.088 9.23316C101.228 9.23316 100.542 8.95537 100.03 8.39735C99.5198 7.84054 99.2647 7.13817 99.2647 6.29144C99.2647 5.40589 99.5272 4.67925 100.055 4.11517C100.582 3.55108 101.291 3.26843 102.186 3.26843C103.046 3.26843 103.739 3.54623 104.261 4.10303C104.759 4.64407 105.009 5.34281 105.009 6.19682ZM103.658 6.23806C103.658 5.71037 103.541 5.25789 103.308 4.88062C103.033 4.4245 102.645 4.19644 102.138 4.19644C101.615 4.19644 101.217 4.4245 100.942 4.88062C100.708 5.25789 100.592 5.71765 100.592 6.26111C100.592 6.7888 100.709 7.24128 100.942 7.61855C101.224 8.07467 101.617 8.30273 102.125 8.30273C102.623 8.30273 103.015 8.07103 103.296 7.60642C103.536 7.22187 103.658 6.76575 103.658 6.23806Z" fill="white"/>
<path d="M112.02 9.10337H110.717V5.82805C110.717 4.81876 110.324 4.31412 109.534 4.31412C109.147 4.31412 108.835 4.45241 108.594 4.73021C108.352 5.008 108.232 5.33554 108.232 5.71038V9.10216H106.926V5.01892C106.926 4.5167 106.911 3.97203 106.88 3.38247H108.025L108.086 4.27651H108.122C108.275 3.99872 108.502 3.76945 108.798 3.58627C109.152 3.37277 109.547 3.2648 109.981 3.2648C110.527 3.2648 110.982 3.43706 111.345 3.78279C111.796 4.20615 112.02 4.83817 112.02 5.67763V9.10337Z" fill="white"/>
<path d="M120.795 4.33716H119.36V7.11513C119.36 7.82114 119.615 8.17415 120.12 8.17415C120.354 8.17415 120.548 8.15474 120.701 8.11471L120.734 9.07911C120.477 9.17373 120.138 9.22104 119.722 9.22104C119.207 9.22104 118.806 9.06819 118.516 8.76249C118.225 8.4568 118.081 7.94245 118.081 7.22066V4.33716H117.223V3.38489H118.081V2.33679L119.358 1.96073V3.38368H120.794V4.33716H120.795Z" fill="white"/>
<path d="M127.698 9.10336H126.393V5.8523C126.393 4.82724 126 4.31411 125.212 4.31411C124.608 4.31411 124.194 4.61131 123.968 5.20572C123.929 5.33067 123.907 5.48352 123.907 5.66306V9.10215H122.604V0.760986H123.907V4.20736H123.932C124.343 3.58019 124.931 3.26722 125.694 3.26722C126.234 3.26722 126.68 3.43947 127.035 3.7852C127.477 4.21585 127.698 4.85636 127.698 5.70309V9.10336Z" fill="white"/>
<path d="M134.819 5.9736C134.819 6.20166 134.801 6.39333 134.77 6.54982H130.86C130.877 7.11511 131.064 7.54576 131.426 7.84418C131.757 8.11106 132.183 8.24449 132.706 8.24449C133.285 8.24449 133.812 8.15473 134.287 7.97398L134.491 8.8571C133.935 9.09244 133.281 9.21011 132.523 9.21011C131.615 9.21011 130.899 8.9493 130.382 8.42767C129.862 7.90604 129.604 7.2061 129.604 6.32782C129.604 5.46532 129.844 4.74718 130.328 4.1746C130.833 3.56321 131.517 3.25751 132.379 3.25751C133.222 3.25751 133.863 3.56321 134.296 4.1746C134.646 4.65983 134.819 5.26031 134.819 5.9736ZM133.574 5.64486C133.584 5.26759 133.499 4.94248 133.322 4.66833C133.095 4.31532 132.751 4.13821 132.284 4.13821C131.859 4.13821 131.512 4.31047 131.247 4.65619C131.03 4.93156 130.902 5.26031 130.86 5.64486H133.574Z" fill="white"/>
</svg>
